<svg width="17" height="16" viewBox="0 0 17 16" fill="none" xmlns="http://www.w3.org/2000/svg">
<path fill-rule="evenodd" clip-rule="evenodd" d="M14.1387 7.99998C14.1387 10.9455 11.7509 13.3333 8.80534 13.3333C5.85982 13.3333 3.47201 10.9455 3.47201 7.99998C3.47201 5.05446 5.85982 2.66665 8.80534 2.66665C11.7509 2.66665 14.1387 5.05446 14.1387 7.99998ZM15.472 7.99998C15.472 11.6819 12.4872 14.6666 8.80534 14.6666C5.12344 14.6666 2.13867 11.6819 2.13867 7.99998C2.13867 4.31808 5.12344 1.33331 8.80534 1.33331C12.4872 1.33331 15.472 4.31808 15.472 7.99998ZM6.80534 7.37335C7.35762 7.37335 7.80534 6.85102 7.80534 6.20669C7.80534 5.56235 7.35762 5.04002 6.80534 5.04002C6.25305 5.04002 5.80534 5.56235 5.80534 6.20669C5.80534 6.85102 6.25305 7.37335 6.80534 7.37335ZM11.8053 6.20669C11.8053 6.85102 11.3576 7.37335 10.8053 7.37335C10.2531 7.37335 9.80534 6.85102 9.80534 6.20669C9.80534 5.56235 10.2531 5.04002 10.8053 5.04002C11.3576 5.04002 11.8053 5.56235 11.8053 6.20669ZM5.50618 8.87751L5.5404 8.98014C6.00883 10.3855 7.32397 11.3334 8.80531 11.3334C10.2866 11.3334 11.6018 10.3855 12.0702 8.98014L12.1044 8.87751L10.8395 8.45587L10.8053 8.5585C10.5184 9.41937 9.71273 10 8.80531 10C7.89788 10 7.09226 9.41937 6.80531 8.5585L6.7711 8.45587L5.50618 8.87751Z" fill="#636566"/>
</svg>
