<svg width="17" height="16" viewBox="0 0 17 16" fill="none" xmlns="http://www.w3.org/2000/svg">
<path fill-rule="evenodd" clip-rule="evenodd" d="M8.80534 3.33333C8.42482 3.33333 8.07323 3.5364 7.88307 3.866L3.5939 11.3006C3.51404 11.439 3.47201 11.596 3.47201 11.7558C3.47201 12.2588 3.87983 12.6667 4.3829 12.6667H13.2278C13.7308 12.6667 14.1387 12.2588 14.1387 11.7558C14.1387 11.596 14.0966 11.439 14.0168 11.3006L9.7276 3.866C9.53745 3.5364 9.18586 3.33333 8.80534 3.33333ZM6.72816 3.1997C7.15643 2.45736 7.94831 2 8.80534 2C9.66236 2 10.4542 2.45736 10.8825 3.1997L15.1717 10.6343C15.3684 10.9753 15.472 11.3621 15.472 11.7558C15.472 12.9952 14.4672 14 13.2278 14H4.3829C3.14345 14 2.13867 12.9952 2.13867 11.7558C2.13867 11.3621 2.24224 10.9753 2.43898 10.6343L6.72816 3.1997ZM9.80534 10.3333C9.80534 10.8856 9.35762 11.3333 8.80534 11.3333C8.25305 11.3333 7.80534 10.8856 7.80534 10.3333C7.80534 9.78105 8.25305 9.33333 8.80534 9.33333C9.35762 9.33333 9.80534 9.78105 9.80534 10.3333ZM8.13867 8.33333V5.33333H9.47201V8.33333H8.13867Z" fill="#636566"/>
</svg>
